<?xml version="1.0" encoding="UTF-8" standalone="no"?>
<!-- Created with Inkscape (http://www.inkscape.org/) -->

<svg
   xmlns:dc="http://purl.org/dc/elements/1.1/"
   xmlns:cc="http://creativecommons.org/ns#"
   xmlns:rdf="http://www.w3.org/1999/02/22-rdf-syntax-ns#"
   xmlns:svg="http://www.w3.org/2000/svg"
   xmlns="http://www.w3.org/2000/svg"
   xmlns:sodipodi="http://sodipodi.sourceforge.net/DTD/sodipodi-0.dtd"
   xmlns:inkscape="http://www.inkscape.org/namespaces/inkscape"
   viewBox="0 0 6.0854168 11.641666"
   id="svg2"
   version="1.1"
   inkscape:version="0.91+devel+osxmenu r12897"
   sodipodi:docname="dollar-sign.svg">
  <g
     inkscape:groupmode="layer"
     id="layer2"
     inkscape:label="Layer 2"
     transform="translate(-0.83697878,-285.04117)">
    <path
       id="path4600"
       style="fill:#ffffff;fill-opacity:1;fill-rule:evenodd;stroke:none;stroke-width:0.01573032px;stroke-linecap:butt;stroke-linejoin:miter;stroke-opacity:1"
       d="m 4.6608689,291.91375 0,2.29213 c 0,0 0.9438193,-0.98876 1.1235946,-1.34831 0.1797751,-0.35955 0.044944,-0.67416 -0.2247189,-0.80899 -0.269663,-0.13483 -0.8988757,-0.13483 -0.8988757,-0.13483 z m -0.9438195,-4.53932 0.089888,3.01123 c 0,0 -1.3033698,0.22472 -1.3033698,-1.48315 0,-1.70785 1.2134822,-1.52808 1.2134822,-1.52808 z m 2.5617952,0.17978 -1.3483133,-0.94383 -0.089887,-1.25842 -0.5393254,-0.26966 -0.7191006,0.35955 0.089888,1.12359 c 0,0 -2.1573016,0.22472 -2.1573016,2.06742 0,1.84269 0.2247188,2.20224 0.8988757,2.4719 0.6741567,0.26966 1.3483133,0.35955 1.3483133,0.35955 l -0.044944,3.01124 c 0,0 -1.3932573,-0.4045 -1.66292,-0.89888 -0.2696626,-0.49438 -0.2247189,-0.94382 -0.2247189,-0.94382 0,0 -0.5842691,-0.0449 -0.808988,0.22472 -0.224719,0.26966 -0.17977512,0.76404 -0.17977512,0.76404 0,0 0.26966252,0.49439 1.03370692,0.89888 0.7640443,0.40449 1.3932572,0.62921 1.6629199,0.98876 0.2696628,0.35955 0.2696628,1.03371 0.2696628,1.03371 0,0 0.2247191,0.0899 0.4494379,0.13483 0.2247188,0.0449 0.3595503,-0.22472 0.3595503,-0.22472 0,0 -0.2247194,-0.98876 0,-1.21348 0.2247188,-0.22472 1.7528078,-1.39326 1.8876387,-2.11236 0.1348309,-0.7191 0.4044939,-1.34831 -0.1348309,-1.79775 -0.5393259,-0.44944 -1.5730327,-0.76404 -1.5730327,-0.76404 l 0,-2.87641 1.2134818,0.94383 0.3595509,-0.31461 z"
       inkscape:connector-curvature="0" />
  </g>
</svg>
